<?xml version="1.0" encoding="utf-8"?>
<!-- Generator: Adobe Illustrator 22.0.1, SVG Export Plug-In . SVG Version: 6.00 Build 0)  -->
<svg version="1.1" id="Capa_1" xmlns="http://www.w3.org/2000/svg" xmlns:xlink="http://www.w3.org/1999/xlink" x="0px" y="0px"
	 viewBox="0 0 1920 597.8" style="enable-background:new 0 0 1920 597.8;" xml:space="preserve">
<style type="text/css">
	.st0{fill:#1A1A1A;}
</style>
<g>
	<g>
		<path class="st0" d="M482.8,26.4c-1,5.8-3.1,11-5.5,16.1c-4.8,10.6-11,20.5-17.1,30.5c-11.3,18.1-22.9,36.6-34.2,55.1
			c-12.3,20.5-22.9,41.8-32.9,63.7c-1.4,2.4-1,2.4,1,3.8c5.1,3.4,10.3,6.8,14,12c4.8,6.5,5.8,13.7,3.1,21.2c-1,2.7-2.4,5.5-3.8,7.9
			c-3.1,4.1-6.2,8.2-9.6,12c-8.2,8.6-16.4,16.8-24.6,25c-1.4,1.4-3.1,2.7-4.4,4.1c-1.4,1-2.4,1.7-3.8,2.4c-4.4,2.4-8.9,0.3-9.6-4.8
			c-0.3-3.4-0.3-6.8,0-10.3c1.4-9.2,4.4-18.1,7.9-27c4.8-12.3,10.3-25,15.4-37.3c1-2.7,1.4-2.4-1.4-4.1
			c-26.4-14.4-54.8-24-84.5-29.1c-26-4.4-52.4-5.5-78.4-4.4c-3.4,0-7.2,0-10.6,0c-2.1,0-4.1,0.7-5.8,2.1
			c-29.4,24.6-57.5,50.7-85.2,77.3c-21.2,20.5-41.8,41.8-61.3,64c-2.1,2.1-3.8,4.4-5.1,6.8c-1.4,2.1-3.4,2.7-5.5,1.7
			c-2.1-0.7-3.1-3.4-2.4-5.1s1.4-3.4,2.7-4.8c4.8-5.8,9.6-12,14.7-17.8c23.6-26,48.6-50.7,74.3-74.6c17.1-15.4,34.6-30.8,51.7-46.2
			c0.7-0.7,1.4-1,2.4-2.1c-2.1,0-3.8,0-5.1,0c-20.9,1.4-41.4,3.1-61.6,5.8c-25,3.1-49.6,7.9-73.9,13.3c-10.6,2.7-21.2,5.1-31.5,7.5
			c-1.4,0.3-2.7,0.7-3.8,0.3c-2.1,0-3.8-1.4-4.1-3.4c-0.7-1.7,0.3-3.8,2.1-4.8c0.7-0.3,1.7-0.7,2.4-1c19.9-4.4,40-9.2,59.9-13.7
			c16.1-3.4,32.5-5.8,48.9-7.9c19.5-2.4,39-4.1,58.9-5.5c5.5-0.3,11-0.7,16.8-1c2.4,0,4.8-0.7,6.8-2.4
			c45.2-37.3,93.4-70.2,144.4-98.9c24.6-14,50.3-26.7,77-36.3c10.3-3.8,20.2-6.8,30.8-8.9c5.8-0.7,11.6-1.4,17.1-0.3
			C479.3,9.3,484.1,16.4,482.8,26.4z M468,16.8c-3.1-0.7-6.5-0.7-9.6-0.3c-8.6,0.7-16.8,3.1-24.6,5.8c-26,8.6-51,20.2-75,33.2
			c-47.6,26-92.4,56.1-135.5,89.3c-3.1,2.4-6.5,5.1-9.6,7.9v0.3c3.1,0,6.2,0.3,9.2,0c26.4,0,52.4,1.4,78.4,6.5
			c28.1,5.5,54.8,14.7,79.7,28.4c2.7,1.4,2.4,1.7,3.8-1c0.3-0.7,0.3-1,0.7-1.4c11.6-25,24-49.3,38.3-72.6
			c10.3-16.8,21.2-33.5,31.5-50.3c5.5-8.9,11.3-18.1,15.1-28.1c1.4-3.4,2.4-6.8,3.1-10.6C474.2,19.9,472.5,17.5,468,16.8z M390,204
			c-2.1-1.4-2.1-1.4-3.1,0.7c-6.5,15.1-13,29.8-17.8,45.2c-1.7,4.8-2.7,9.9-4.1,14.7c0,0.7,0,1.4,0,2.1c0.7-0.3,1.4-0.7,2.1-1
			c5.1-5.1,10.3-10.3,15.4-15.4c1-1,1.7-2.4,2.7-3.1c4.1-2.7,6.8-6.2,9.9-9.9c2.7-3.1,5.1-6.8,6.8-10.6c0.7-2.1,1-4.1,1.4-5.1
			c0-3.8-1.4-6.5-3.1-8.9C397.5,209.1,393.8,206.4,390,204z"/>
		<path class="st0" d="M661.1,149.2c0,0.7-0.3,1.4-1,2.1c-0.7,1-1.4,2.4-2.4,3.4c-25,28.1-55.1,48.3-91,59.6
			c-8.6,2.7-17.8,4.8-22.9,4.8c-22.6,0-37.6-7.5-48.9-21.9c-3.1-3.8-5.5-7.9-8.2-11.6c-0.7-1.4-1-1.4-2.1-0.7
			c-11.6,10.3-23.3,20.2-33.9,31.5c-1,1-2.1,2.1-1.4,3.8c0.3,0.7,0.3,2.1-0.3,3.1c-1.7,2.7-4.1,4.4-7.5,4.8
			c-4.1,0.3-6.8-2.7-5.8-6.5c0.7-2.1,1.7-3.8,2.7-5.1c3.1-3.8,6.2-7.9,9.9-11.3c10.3-9.2,20.5-18.5,31.1-27.7c2.1-2.1,2.1-2.1,1-5.1
			c-1.7-5.1-3.1-10.3-4.8-15.1c-1.7-4.1-1.7-7.9-2.1-12c0-1,0-1.7,0.3-2.7c0.3-1.7,2.1-2.7,3.8-3.1c1.7,0,3.4,1,4.1,2.4
			c0.3,0.7,0.7,1.7,0.7,2.4c1,7.9,3.4,15.1,5.8,22.6c1,2.1,1,2.1,2.7,0.7c8.2-5.8,16.1-12.3,24.3-18.1c5.5-3.8,11.3-6.8,17.5-10.3
			c2.1-1,4.4-1.7,6.8-2.4c3.1-0.7,5.5,0.7,6.2,3.4c1,2.7-1,5.5-4.1,5.5c-1.7-0.3-3.1,0.3-4.4,1c-5.5,3.4-11.3,6.8-16.4,10.6
			c-8.9,6.2-17.1,12.7-25.7,19.2c-2.1,1.4-2.1,1.7-0.7,3.8c2.7,4.1,5.5,8.6,8.6,12.3c11,13.7,25.7,18.5,43.1,16.8
			c13-1.4,25-5.8,37-11c25.7-11,47.6-27.7,66.4-48.6c1-1,1.7-2.4,2.4-3.8c1-2.7,3.8-4.1,6.5-3.4
			C660.7,143.4,662.1,146.5,661.1,149.2z"/>
		<path class="st0" d="M752.8,158.8c-2.4,1.7-4.8,3.1-6.8,4.8c-15.1,12-31.5,21.9-49.3,29.1c-12.3,5.1-24.6,8.9-37.6,10.6
			c-5.1,0.7-10.3,1-15.4,0.3c-6.2-1-11.3-3.8-14-9.9c-0.3-1.4-1.4-1.4-2.4-1c-2.4,0.3-4.8,1-7.2,1c-1.7,0-3.8-0.3-5.1-1
			c-2.1-1.4-2.7-4.1-1.7-6.2c1-2.1,3.1-2.4,5.5-1.7c1,0.3,2.1,0.3,2.7,0.3c1,0,2.1-0.3,3.1-0.7c2.7-0.7,4.8-2.1,5.5-5.5
			c1.7-6.2,5.5-11.6,9.6-16.4c6.8-8.6,15.4-15.4,25.3-20.2c3.4-1.7,7.2-3.1,11-4.1c2.4-0.3,4.8-0.3,7.2,0.3c5.1,1,7.5,5.5,6.2,10.3
			c-1,2.7-2.4,5.5-3.8,7.5c-3.8,5.1-8.6,9.2-13.7,13.3c-9.2,7.2-19.9,12.7-30.5,17.8c-0.7,0.3-1.4,0.7-2.1,0.7c-1,0.7-1,1.4-0.7,2.1
			c0.7,1.7,2.1,3.1,3.8,3.4c2.7,0.3,5.5,0.7,8.2,1c11.3-0.7,22.2-3.4,33.2-7.2c20.5-6.8,39.4-17.8,56.5-31.1
			c2.1-2.1,4.4-3.4,6.8-5.1c1-0.7,2.4-1,3.8-1c1.7,0.3,3.1,1.4,3.8,3.4C755.2,155.7,754.5,157.4,752.8,158.8z M641.2,176.3
			c0.3,0.3,0.3,0.3,0.7,0.7c4.1-2.4,8.6-4.8,12.7-7.2c7.2-4.1,14-8.9,19.9-15.1c1.7-1.7,3.4-3.8,4.8-5.8c0.7-1,0.3-1.7-1-1.4
			c-2.7,0.7-5.5,1.4-7.9,2.4c-10.6,5.1-19.5,12.7-26.4,22.2C642.9,173.5,642.2,174.9,641.2,176.3z"/>
		<path class="st0" d="M926.3,42.1c-2.1,2.7-4.1,5.1-6.5,7.2c-5.8,5.5-12.3,9.2-19.2,12.7c-17.1,8.6-34.9,15.1-53,20.9
			c-4.8,1.4-9.2,2.7-14,4.1c-1.7,0.7-3.4,1.4-4.8,2.7c-25.3,20.5-49.6,42.8-72.9,65.7c-27.4,26.7-54.8,53.4-82.1,80.1
			c-5.5,5.5-11,11-16.1,16.8c-3.4,3.8-6.2,7.9-9.2,12c-1,1.7-2.1,4.1-2.4,6.2c-1,3.1,0,5.8,3.1,7.5c2.4,1.4,5.1,1.7,7.9,1.4
			c6.5-0.3,13-2.4,19.2-4.4c12.7-4.8,25-10.6,37-16.8c31.1-16.4,61.6-33.9,92.1-51.7c22.9-13.3,46.2-26.4,69.5-39.7
			c2.1-1.4,4.8-2.4,7.2-3.4c0.7-0.7,1.7-1,2.7-1c2.1-0.7,3.8,0.3,4.8,2.1c1,1.4,1,3.8-0.3,5.1c-0.3,0.7-1.4,1.4-2.1,2.1
			c-7.2,3.8-14.4,7.2-21.6,11.3c-33.9,19.5-67.8,39-101.6,58.5c-21.9,12.3-44.2,24.6-67.1,35.3c-9.9,4.4-19.9,8.6-30.8,11
			c-4.8,1-9.9,2.1-15.1,1c-7.5-1.4-13-6.5-14.4-13.3c-0.7-3.4,0-6.8,1.4-10.3c1.7-4.4,4.4-8.9,7.5-12.3c4.1-5.5,8.6-10.6,13.7-15.4
			c13.3-13.7,27.4-26.7,41.1-40c19.2-18.5,38-37.3,56.8-55.8c16.4-16.1,33.2-31.1,50.3-46.2c0.3-0.3,1-0.7,1.4-1l-0.3-0.3
			c-4.1,0.7-8.6,1.7-13,2.7c-16.4,3.1-33.2,5.8-50,7.2c-8.2,1-16.4,1.4-24.6,1c-7.5-0.3-14.7-1-21.6-3.4c-3.8-1.4-7.5-3.1-10.6-5.8
			c-1.4-1.4-2.4-3.1-3.4-4.4s-0.7-3.1,0-4.4c1.4-2.1,4.1-3.1,6.8-2.4c2.4,0.3,3.4,1.7,3.8,4.4c0,1.4,1,2.1,2.1,2.4
			c4.4,1,8.9,2.4,13.3,3.4c9.6,1.7,19.5,1.4,29.1,0.3c17.5-1.4,34.6-3.8,51.7-7.2c11-2.4,21.6-5.1,32.5-7.9c1.7-0.3,3.1-1.4,4.4-2.4
			c13.3-10.6,27.4-20.5,41.8-29.4c12-6.8,24-13,37-16.4c4.1-1,8.2-1.7,12.3-1.4c3.8,0.3,6.5,2.4,7.5,5.5
			C928,38,927.3,40.4,926.3,42.1z M916,39.7l-0.3-0.3c-23.3,4.8-42.8,17.5-61.6,31.1c0.3,0,0.7,0,1,0c15.4-5.5,30.8-11,45.2-19.2
			c4.8-2.7,9.2-6.2,13.7-9.2C915,41.4,915.4,40.4,916,39.7z"/>
	</g>
	<g>
		<path class="st0" d="M977.1,303.8c-0.7,17.8-5.1,34.9-12,51.3c-7.9,18.8-18.5,35.9-30.1,52.4c-11,16.1-23.3,31.1-35.9,46.2
			c-0.7,0.7-1,1.7-1.7,2.7c1,0,2.1,0,3.1,0.3c4.4,0.3,8.9,1,13.3,2.7c5.1,2.4,8.9,6.2,10.3,11.6c1.4,4.1,1.7,7.9,2.4,12
			c0,1.7-0.3,3.4-1,4.8c-1.4,2.4-3.8,3.1-6.2,2.4c-2.1-0.7-3.1-2.7-2.7-5.5c0.7-4.1-0.3-7.9-1.7-11.6c-0.7-2.4-2.7-4.1-5.1-5.1
			c-3.4-1.4-6.8-1.7-10.6-2.1c-2.7,0-5.1,0-7.9,0c-2.1,0-3.4,0.7-4.8,2.4c-16.4,18.5-33.5,36.3-51.7,53.4
			c-13.7,12.7-27.4,25.3-42.1,36.6c-13.3,9.9-27.4,18.8-43.1,25.7c-7.9,3.4-16.1,6.2-24.6,6.8c-4.8,0.7-9.6,0.3-14-1.4
			c-7.9-2.7-12-8.9-11.6-17.1c0-4.1,1.4-8.2,2.7-12c3.4-8.2,8.2-15.4,13.7-22.2c17.1-20.2,37.3-36.6,60.9-48.3
			c26-12.7,52.7-22.2,80.8-28.4c7.9-1.7,16.1-2.7,24.3-4.1c1.4-0.3,2.4-0.7,3.1-1.4c20.2-23.6,39.7-47.6,55.8-73.9
			c9.2-14.7,16.8-30.1,21.6-46.9c3.8-12,5.8-24.3,5.1-36.6c-0.3-4.1-1-7.9-2.1-12c-2.7-9.6-8.9-16.1-18.5-19.5
			c-8.9-3.1-18.1-3.4-27.7-3.1c-20.5,1-40,6.5-59.2,13c-26,8.9-51,20.2-74.3,34.6c-14,8.9-27,19.5-38.3,31.8
			c-6.8,7.9-13,16.1-16.4,26c-2.1,4.8-2.7,9.9-2.4,15.1c0.7,5.8,3.4,10.3,8.6,12.7c0.7,0.3,1.4,0.7,2.1,1.4c2.4,1.4,3.4,3.4,2.4,5.5
			c-1,2.1-3.1,3.1-5.8,2.1c-7.9-3.1-13.3-8.2-15.7-16.4c-2.1-6.8-1-13.7,1-20.2c3.1-10.6,8.9-19.9,15.7-28.1
			c11-13,23.6-24,37.6-33.5c17.1-11.6,35.3-20.5,54.1-28.7c20.5-8.9,42.1-16.1,64-20.9c12-2.4,24-4.1,35.9-3.8
			c7.2,0.3,14,1.4,20.5,3.4c14.7,5.1,23.6,15.4,26.4,30.1C976.1,293.2,976.4,298.7,977.1,303.8z M873.8,468.1
			c-1.4,0.3-1.7,0.3-2.4,0.3c-4.1,0.7-8.6,1.7-12.7,2.4c-29.4,6.5-57.2,16.8-83.5,30.8c-21.6,11-39.4,26.7-54.4,45.5
			c-4.4,5.5-8.2,11.3-10.6,17.8c-1,3.1-1.7,5.8-1.4,8.9c0,3.1,1.4,5.1,4.1,6.5c1.4,0.7,2.7,1,4.1,1c3.4,1,7.2,0.3,10.6,0
			c7.2-1.4,14-4.1,20.9-7.2c16.4-7.5,31.5-17.5,45.5-29.1c28.4-22.9,54.1-48.3,78.4-75.3C872.7,469.5,873.1,469.1,873.8,468.1z"/>
		<path class="st0" d="M1085.9,388.7c-1.7,1.4-3.8,2.4-5.8,3.4c-27,14-55.4,26-84.9,34.6c-8.2,2.4-16.4,4.4-25,4.8
			c-2.7-0.3-5.1-0.3-7.9-1c-6.5-1.7-9.9-7.2-8.6-14c0.7-5.1,3.1-9.9,5.8-14.7c1.7-2.7,3.8-5.1,5.5-7.9c0.7-1.4,1.7-2.7,2.7-4.1
			c0.3-0.7,1-1.4,1.7-2.1c1.7-1.7,3.8-2.1,5.5-1c1.7,1.4,2.7,3.8,1.7,5.8c-0.7,1.4-1.4,2.4-2.4,3.8c-3.8,5.1-7.5,11-9.9,17.1
			c-0.7,1.7-1,3.1-1.4,4.8c-0.3,2.1,0,3.1,2.1,3.1c3.1,0.3,6.5,0.7,9.6,0.3c8.6-1,17.1-3.4,25.3-6.2c26.7-8.2,52-19.2,76.7-32.2
			c1.4-0.7,3.1-1.7,4.5-2.4c2.7-1.4,5.1-0.7,6.5,1.4C1089,384.3,1088.3,387,1085.9,388.7z M994.2,351.4c1.7-2.4,3.8-4.1,6.5-4.8
			c3.1-0.7,6.2,1.4,6.2,4.4c0,2.1-1,3.8-2.7,4.1c-1.4,0.3-2.4,1-3.8,1.7c-1.7,1.7-4.1,1.7-5.8,0.3
			C993.2,355.9,992.8,353.8,994.2,351.4z"/>
		<path class="st0" d="M1306,385.3c-0.3,0.3-0.7,0.7-1,1c-12.3,8.9-24.6,17.5-37.3,26.4c-5.1,3.4-10.6,6.5-16.4,8.9
			c-4.1,1.4-7.9,2.7-12.3,2.4c-9.2-0.7-15.7-7.9-16.1-17.8c0-2.1,0.7-4.1,1-6.2c0-0.7,0-1.4,0-1.7c-0.7,0-1.4,0-1.7,0.3
			c-5.8,2.4-11.3,4.8-17.1,7.2c-6.5,2.7-13.3,5.5-20.2,8.2c-2.1,0.7-4.4,1-6.5,1.7c-11,1.7-19.9-5.1-20.5-16.1c0-0.7,0-1.4,0-2.1
			h-0.3c0.7-3.1,1-6.5,1.7-9.6c0-0.3,0.3-1,0.3-1.7s0-1.4-1-0.7c-1,0.3-1.7,0.7-2.7,1c-15.1,7.5-29.1,16.4-43.5,25
			c-13.7,8.6-27.7,17.1-41.8,25.3c-3.1,2.1-6.5,3.4-9.9,4.8c-1,0.3-2.4,0.7-3.8,1c-6.8,1.4-11.6-3.4-10.3-9.9
			c0.7-3.8,2.1-7.5,3.8-10.6c2.7-5.8,6.2-11.6,9.9-16.8c10.3-15.4,21.6-30.1,33.9-43.8c0.7-1,1.7-1.7,2.7-2.4c1.7-1.4,4.1-1,5.5,0
			c1.4,1.4,2.1,3.1,1,5.1c-1.4,3.4-3.1,6.5-4.8,9.9c-0.7,1.4-2.1,2.1-3.8,2.1c-0.7,0.3-1.7,0.7-2.1,1c-12,15.1-24,29.8-32.9,46.5
			c-1.4,2.4-2.4,4.8-3.4,7.5c-0.3,0.3,0,1,0,1.7c0.3,0,1-0.3,1.4-0.3c3.8-1.7,7.5-3.4,11-5.5c14.4-8.9,28.8-17.8,43.1-26.4
			c12.3-7.9,25-15.4,38-21.9c3.1-1.4,6.2-3.1,9.2-4.1c7.5-2.1,12,2.1,10.6,9.6c-1,3.8-1.7,7.5-2.4,11c-0.3,2.1,0,3.8,0.3,5.5
			c0.7,3.8,3.8,5.8,7.5,5.5c2.1-0.3,4.1-0.7,6.2-1.4c5.1-1.7,10.3-3.8,15.7-6.2c6.8-2.7,14-5.8,21.2-8.9c1.7-1,3.4-1.7,5.1-2.4
			c4.4-2.1,8.2-4.4,10.6-9.2c2.4-5.1,6.2-9.6,11-13c2.4-1.4,4.8-3.1,7.5-4.1c1.7-0.7,3.8-0.7,5.5-0.3c4.4,0.3,6.5,4.4,4.4,8.6
			c-0.3,1-1.4,2.4-2.1,3.4c-2.7,2.4-5.1,5.1-7.9,7.2c-4.1,3.4-8.9,6.2-13,9.2c-1,0.7-2.1,1.7-2.7,2.7c-1.4,3.1-2.7,6.2-3.8,9.6
			c-1,2.7-1,5.8,0.3,8.9c1,2.4,3.1,3.8,5.8,3.8c3.1,0.3,5.8-0.3,8.6-1.7c5.1-2.7,10.3-5.1,15.1-8.2c11.6-7.9,23.3-16.1,34.6-24.3
			c1-0.7,2.1-1.7,3.4-2.4c2.1-1,4.4-0.3,5.8,1.7C1308.1,381.2,1307.7,383.6,1306,385.3z"/>
		<path class="st0" d="M1400.5,386.3c-2.4,1.7-4.8,3.1-6.8,4.8c-15.1,12-31.5,21.9-49.3,29.1c-12.3,5.1-24.6,8.9-37.6,10.6
			c-5.1,0.7-10.3,1-15.4,0.3c-6.2-1-11.3-3.8-14-9.9c-0.3-1.4-1.4-1.4-2.4-1c-2.4,0.3-4.8,1-7.2,1c-1.7,0-3.8-0.3-5.1-1
			c-2.1-1.4-2.7-4.1-1.7-6.2c1-2.1,3.1-2.4,5.5-1.7c1,0.3,2.1,0.3,2.7,0.3c1,0,2.1-0.3,3.1-0.7c2.7-0.7,4.8-2.1,5.5-5.5
			c1.7-6.2,5.5-11.6,9.6-16.4c6.8-8.6,15.4-15.4,25.3-20.2c3.4-1.7,7.2-3.1,11-4.1c2.4-0.3,4.8-0.3,7.2,0.3c5.1,1,7.5,5.5,6.2,10.3
			c-1,2.7-2.4,5.5-3.8,7.5c-3.8,5.1-8.6,9.2-13.7,13.3c-9.2,7.2-19.9,12.7-30.5,17.8c-0.7,0.3-1.4,0.7-2.1,0.7c-1,0.7-1,1.4-0.7,2.1
			c0.7,1.7,2.1,3.1,3.8,3.4c2.7,0.3,5.5,0.7,8.2,1c11.3-0.7,22.2-3.4,33.2-7.2c20.5-6.8,39.4-17.8,56.5-31.1
			c2.1-2.1,4.4-3.4,6.8-5.1c1-0.7,2.4-1,3.8-1c1.7,0.3,3.1,1.4,3.8,3.4C1402.9,383.2,1402.2,384.9,1400.5,386.3z M1288.9,403.8
			c0.3,0.3,0.3,0.3,0.7,0.7c4.1-2.4,8.6-4.8,12.7-7.2c7.2-4.1,14-8.9,19.9-15.1c1.7-1.7,3.4-3.8,4.8-5.8c0.7-1,0.3-1.7-1-1.4
			c-2.7,0.7-5.5,1.4-7.9,2.4c-10.6,5.1-19.5,12.7-26.4,22.2C1290.6,401,1289.9,402.4,1288.9,403.8z M1350.8,336.7
			c-3.4,3.1-6.5,5.8-9.9,8.6c-3.1,2.4-6.2,4.4-9.2,6.8c-1.4,1-2.4,2.4-3.4,3.4c-1,0.7-2.4,1.4-3.1,1.7c-3.4,0-5.5-2.4-4.8-5.1
			c0.3-2.1,1.7-3.4,3.1-4.4c4.8-3.8,9.2-7.5,14-11.6c2.1-1.7,3.8-3.4,5.8-5.1c0.3-0.3,0.7-0.7,1-1c2.4-2.1,5.1-2.1,6.8-0.3
			C1353.2,331.6,1352.9,334.6,1350.8,336.7z"/>
		<path class="st0" d="M1498.7,400.7c-0.7,0.3-1,0.7-1.7,1c-12.7,5.5-25.7,11-38.3,16.4c-6.5,2.7-13.3,5.1-20.5,5.5
			c-2.1,0.3-3.8,0-5.5,0c-6.2-1-9.9-5.5-10.6-12c0-1.7,0-3.8,0-5.5c0-3.4,0-3.4-2.7-2.1c-5.5,3.1-11,5.8-16.4,9.2
			c-6.5,3.8-12.7,7.5-19.2,11.3c-2.1,1.4-4.1,2.4-6.2,3.1c-1.4,0.7-2.7,1-4.1,1.4c-4.1,0.7-7.5-2.1-7.2-6.5c0-2.1,0.7-4.1,1.7-6.2
			c2.4-4.4,5.1-9.2,7.9-14c0.7-1,1.4-2.1,1.7-3.1c0.7-1,1-2.1,1.7-2.7c2.4-3.1,4.8-6.2,7.5-8.9c1.4-1.4,2.7-3.1,4.4-4.1
			c2.1-1.7,4.4-1.4,5.8,0.3c1.7,1.4,2.1,3.8,0.3,5.8c-0.3,1-1.4,1.7-2.1,2.7c-6.5,6.8-11.3,14.7-16.4,22.9c0,0.3,0,0.3,0,1.4
			c3.8-2.4,7.5-4.4,11-6.5c8.6-5.1,17.1-9.9,25.7-14.7c2.1-1,4.4-1.7,6.5-2.4c4.8-1,8.6,1.4,9.2,6.2c0.3,2.4,0.3,4.8,0.3,7.5
			c0,1.4-0.3,3.1,0,4.4c0.3,2.1,1,3.1,3.4,3.1c2.7-0.3,5.5-0.3,8.2-1c5.5-1.7,10.6-3.4,16.1-5.8c11.3-4.8,22.2-9.6,33.5-14.4
			c0.7-0.3,1.4-0.7,2.4-1c2.4-0.3,4.4,0.7,5.5,2.7C1501.8,396.9,1500.7,399.3,1498.7,400.7z"/>
		<path class="st0" d="M1609.6,386.3c-2.4,1.7-4.8,3.1-6.8,4.8c-15.1,12-31.5,21.9-49.3,29.1c-12.3,5.1-24.6,8.9-37.6,10.6
			c-5.1,0.7-10.3,1-15.4,0.3c-6.2-1-11.3-3.8-14-9.9c-0.3-1.4-1.4-1.4-2.4-1c-2.4,0.3-4.8,1-7.2,1c-1.7,0-3.8-0.3-5.1-1
			c-2.1-1.4-2.7-4.1-1.7-6.2c1-2.1,3.1-2.4,5.5-1.7c1,0.3,2.1,0.3,2.7,0.3c1,0,2.1-0.3,3.1-0.7c2.7-0.7,4.8-2.1,5.5-5.5
			c1.7-6.2,5.5-11.6,9.6-16.4c6.8-8.6,15.4-15.4,25.3-20.2c3.4-1.7,7.2-3.1,11-4.1c2.4-0.3,4.8-0.3,7.2,0.3c5.1,1,7.5,5.5,6.2,10.3
			c-1,2.7-2.4,5.5-3.8,7.5c-3.8,5.1-8.6,9.2-13.7,13.3c-9.2,7.2-19.9,12.7-30.5,17.8c-0.7,0.3-1.4,0.7-2.1,0.7c-1,0.7-1,1.4-0.7,2.1
			c0.7,1.7,2.1,3.1,3.8,3.4c2.7,0.3,5.5,0.7,8.2,1c11.3-0.7,22.2-3.4,33.2-7.2c20.5-6.8,39.4-17.8,56.5-31.1
			c2.1-2.1,4.4-3.4,6.8-5.1c1-0.7,2.4-1,3.8-1c1.7,0.3,3.1,1.4,3.8,3.4C1612,383.2,1611.3,384.9,1609.6,386.3z M1498,403.8
			c0.3,0.3,0.3,0.3,0.7,0.7c4.1-2.4,8.6-4.8,12.7-7.2c7.2-4.1,14-8.9,19.9-15.1c1.7-1.7,3.4-3.8,4.8-5.8c0.7-1,0.3-1.7-1-1.4
			c-2.7,0.7-5.5,1.4-7.9,2.4c-10.6,5.1-19.5,12.7-26.4,22.2C1499.7,401,1499,402.4,1498,403.8z"/>
		<path class="st0" d="M1913.2,513.6c-2.7,5.1-7.5,7.9-13,9.6c-0.7,0.3-1.7,0.3-2.4,0.3c-2.4-0.3-4.4-2.1-4.4-4.4
			c-0.3-2.1,1-3.8,3.4-4.8c2.1-0.7,4.1-1.4,5.8-2.7c3.8-2.4,3.8-5.5,0.7-8.6c-1.7-2.1-4.1-3.8-6.2-5.1c-8.6-4.8-17.5-7.9-26.7-10.3
			c-14.4-4.1-28.8-6.5-43.5-8.6c-21.2-2.4-42.4-3.8-63.7-3.8c-0.7-0.3-1.4-0.3-2.1-0.3c-1,0-1.4,0.7-1.4,1.7
			c-0.7,14.4-8.6,25.3-19.2,34.2c-9.2,8.2-20.2,14.4-31.5,19.5c-19.2,8.9-39.4,14.7-60.2,18.5c-16.4,3.1-32.9,4.8-49.6,5.1
			c-19.2,0.3-38.3-1-57.2-6.2c-6.2-1.7-12-3.8-17.5-7.2c-3.1-1.7-5.8-4.1-8.2-6.5c-5.5-6.2-5.8-13.7-1-20.2c2.4-2.7,4.8-5.5,7.9-7.5
			c6.5-5.5,14.4-8.9,22.2-12c16.4-6.5,33.5-11,51-14.7c22.9-4.4,46.2-7.5,69.5-9.9c21.9-2.1,44.2-3.8,66.4-4.1c4.8,0,9.6,0,14.4-0.3
			c1.7,0,2.1,0,1.4-1.7c-2.1-5.8-5.1-10.6-9.2-15.1c-7.5-8.2-16.4-14.4-26.4-18.8c-15.4-6.5-31.8-10.6-48.6-12
			c-19.2-2.1-38-0.7-56.8,3.4c-2.7,0.7-5.5,1.7-8.6,2.7c-2.1,0.7-4.1,0.7-6.2-0.3c-4.1-2.1-4.4-6.8-1-9.2c1.4-1,3.1-2.1,4.8-2.4
			c13.7-5.1,27.7-10.3,41.8-15.1c12.7-4.4,25.3-8.9,38-13.7c1-0.3,1.7-0.7,2.7-1c0-0.3,0-0.3,0-0.3c-3.4,0.3-6.5,1-9.9,1.4
			c-13,2.1-26,3.8-39.4,3.8c-4.8,0-9.6-0.7-14.4-1.7c-3.8-1-7.5-2.7-10.3-5.5c-1.4-1.4-2.7-3.1-3.4-4.8c-1-2.7,0-5.1,2.7-6.2
			c2.4-1,4.8,0,5.8,2.7c0.3,1.7,1.4,2.7,3.1,3.4c3.1,1.4,6.2,1.7,9.6,2.1c8.6,0.7,17.1,0.3,25.7-0.7c18.5-2.1,37.3-4.8,55.4-9.2
			c9.2-2.1,18.1-4.8,27-7.2c1.4-0.3,2.4-0.7,3.8-0.7c2.1-0.3,3.8,1,4.5,3.1c0.3,1.7-0.3,3.8-2.1,5.1c-0.3,0.3-1,0.7-1.4,0.7
			c-11.3,5.1-22.9,9.9-34.2,14.7c-19.9,8.9-40.4,16.4-61.3,23.3c-1,0.3-1.7,0.7-2.7,1c0,0-0.3,0-0.7,0.3c1.4,0,2.4,0,3.4,0
			c27.4-1,54.1,3.4,79.1,15.1c9.2,4.1,17.5,9.9,24.6,17.1c6.5,6.8,11.6,14.7,14.4,23.6c0.3,1.7,1,2.1,2.7,2.4c9.6,0,19.2,0.3,29.1,1
			c26.7,1.4,53.7,4.1,79.7,11c10.3,2.7,20.2,5.8,29.4,10.6c3.1,2.1,6.5,4.1,9.2,6.2c2.1,2.1,3.8,4.1,5.1,6.8
			C1915.6,505.1,1915.6,509.5,1913.2,513.6z M1748.2,475c-0.7,0-1.4,0-2.1,0c-7.2,0-14.7,0.3-22.6,0.3c-2.1,0.3-4.8,0.3-7.2,0.3
			c-13.3,1-26.4,1.4-39.7,2.7c-17.1,1.7-34.2,3.8-51.7,6.2c-17.5,2.4-34.6,5.8-51.7,10.6c-12,3.1-24,7.2-35.6,13
			c-4.4,2.4-8.6,4.8-12.3,8.6c-5.1,5.1-4.8,9.6,1,14c3.8,2.7,7.9,4.4,12,6.2c14,4.8,28.7,6.8,43.5,7.5c25.7,1,51.3-1.4,76.7-7.2
			c19.9-4.4,39.4-11,57.2-20.5c8.9-4.8,17.5-10.6,24.3-18.1c4.1-4.4,7.5-9.6,9.2-15.7c0.7-1.7,1-3.8,1-5.8
			C1750.6,475,1750.3,475,1748.2,475z"/>
	</g>
</g>
<g>
</g>
<g>
</g>
<g>
</g>
<g>
</g>
<g>
</g>
<g>
</g>
<g>
</g>
<g>
</g>
<g>
</g>
<g>
</g>
<g>
</g>
<g>
</g>
<g>
</g>
<g>
</g>
<g>
</g>
</svg>
